<svg width="1200" height="319" viewBox="0 0 1200 319" fill="none" xmlns="http://www.w3.org/2000/svg">
<rect width="1200" height="319" fill="#1E1E1E"/>
<rect width="1200" height="319" fill="white"/>
<path d="M119.75 76.5625V74.25H156.062V76.5625H153C149.542 76.5625 147.021 77.5833 145.438 79.625C144.438 80.9583 143.938 84.1667 143.938 89.25V130.688C143.938 137.062 143.229 142.229 141.812 146.188C140.438 150.146 138.042 153.604 134.625 156.562C131.208 159.479 127.083 160.938 122.25 160.938C118.333 160.938 115.25 159.979 113 158.062C110.75 156.104 109.625 153.875 109.625 151.375C109.625 149.333 110.146 147.792 111.188 146.75C112.562 145.458 114.167 144.812 116 144.812C117.333 144.812 118.521 145.25 119.562 146.125C120.646 147 122 149.333 123.625 153.125C124.583 155.375 125.812 156.5 127.312 156.5C128.438 156.5 129.479 155.812 130.438 154.438C131.438 153.062 131.938 150.625 131.938 147.125V89.25C131.938 84.9583 131.667 82.125 131.125 80.75C130.708 79.7083 129.833 78.8125 128.5 78.0625C126.708 77.0625 124.812 76.5625 122.812 76.5625H119.75ZM233.938 72.3125L235.875 101.125H233.938C231.354 92.5 227.667 86.2917 222.875 82.5C218.083 78.7083 212.333 76.8125 205.625 76.8125C200 76.8125 194.917 78.25 190.375 81.125C185.833 83.9583 182.25 88.5 179.625 94.75C177.042 101 175.75 108.771 175.75 118.062C175.75 125.729 176.979 132.375 179.438 138C181.896 143.625 185.583 147.938 190.5 150.938C195.458 153.938 201.104 155.438 207.438 155.438C212.938 155.438 217.792 154.271 222 151.938C226.208 149.562 230.833 144.875 235.875 137.875L237.812 139.125C233.562 146.667 228.604 152.188 222.938 155.688C217.271 159.188 210.542 160.938 202.75 160.938C188.708 160.938 177.833 155.729 170.125 145.312C164.375 137.562 161.5 128.438 161.5 117.938C161.5 109.479 163.396 101.708 167.188 94.625C170.979 87.5417 176.188 82.0625 182.812 78.1875C189.479 74.2708 196.75 72.3125 204.625 72.3125C210.75 72.3125 216.792 73.8125 222.75 76.8125C224.5 77.7292 225.75 78.1875 226.5 78.1875C227.625 78.1875 228.604 77.7917 229.438 77C230.521 75.875 231.292 74.3125 231.75 72.3125H233.938ZM281.75 156.688V159H245.438V156.688H248.438C251.938 156.688 254.479 155.667 256.062 153.625C257.062 152.292 257.562 149.083 257.562 144V89.25C257.562 84.9583 257.292 82.125 256.75 80.75C256.333 79.7083 255.479 78.8125 254.188 78.0625C252.354 77.0625 250.438 76.5625 248.438 76.5625H245.438V74.25H281.75V76.5625H278.688C275.229 76.5625 272.708 77.5833 271.125 79.625C270.083 80.9583 269.562 84.1667 269.562 89.25V144C269.562 148.292 269.833 151.125 270.375 152.5C270.792 153.542 271.667 154.438 273 155.188C274.792 156.188 276.688 156.688 278.688 156.688H281.75ZM369.25 159L336.5 87.6875V144.312C336.5 149.521 337.062 152.771 338.188 154.062C339.729 155.812 342.167 156.688 345.5 156.688H348.5V159H319V156.688H322C325.583 156.688 328.125 155.604 329.625 153.438C330.542 152.104 331 149.062 331 144.312V88.9375C331 85.1875 330.583 82.4792 329.75 80.8125C329.167 79.6042 328.083 78.6042 326.5 77.8125C324.958 76.9792 322.458 76.5625 319 76.5625V74.25H343L373.75 140.562L404 74.25H428V76.5625H425.062C421.438 76.5625 418.875 77.6458 417.375 79.8125C416.458 81.1458 416 84.1875 416 88.9375V144.312C416 149.521 416.583 152.771 417.75 154.062C419.292 155.812 421.729 156.688 425.062 156.688H428V159H392V156.688H395C398.625 156.688 401.167 155.604 402.625 153.438C403.542 152.104 404 149.062 404 144.312V87.6875L371.312 159H369.25ZM470.25 156.688V159H433.938V156.688H436.938C440.438 156.688 442.979 155.667 444.562 153.625C445.562 152.292 446.062 149.083 446.062 144V89.25C446.062 84.9583 445.792 82.125 445.25 80.75C444.833 79.7083 443.979 78.8125 442.688 78.0625C440.854 77.0625 438.938 76.5625 436.938 76.5625H433.938V74.25H470.25V76.5625H467.188C463.729 76.5625 461.208 77.5833 459.625 79.625C458.583 80.9583 458.062 84.1667 458.062 89.25V144C458.062 148.292 458.333 151.125 458.875 152.5C459.292 153.542 460.167 154.438 461.5 155.188C463.292 156.188 465.188 156.688 467.188 156.688H470.25ZM471.688 74.25H494.688L546.5 137.812V88.9375C546.5 83.7292 545.917 80.4792 544.75 79.1875C543.208 77.4375 540.771 76.5625 537.438 76.5625H534.5V74.25H564V76.5625H561C557.417 76.5625 554.875 77.6458 553.375 79.8125C552.458 81.1458 552 84.1875 552 88.9375V160.375H549.75L493.875 92.125V144.312C493.875 149.521 494.438 152.771 495.562 154.062C497.146 155.812 499.583 156.688 502.875 156.688H505.875V159H476.375V156.688H479.312C482.938 156.688 485.5 155.604 487 153.438C487.917 152.104 488.375 149.062 488.375 144.312V85.375C485.917 82.5 484.042 80.6042 482.75 79.6875C481.5 78.7708 479.646 77.9167 477.188 77.125C475.979 76.75 474.146 76.5625 471.688 76.5625V74.25ZM605.375 156.688V159H569.062V156.688H572.062C575.562 156.688 578.104 155.667 579.688 153.625C580.688 152.292 581.188 149.083 581.188 144V89.25C581.188 84.9583 580.917 82.125 580.375 80.75C579.958 79.7083 579.104 78.8125 577.812 78.0625C575.979 77.0625 574.062 76.5625 572.062 76.5625H569.062V74.25H605.375V76.5625H602.312C598.854 76.5625 596.333 77.5833 594.75 79.625C593.708 80.9583 593.188 84.1667 593.188 89.25V144C593.188 148.292 593.458 151.125 594 152.5C594.417 153.542 595.292 154.438 596.625 155.188C598.417 156.188 600.312 156.688 602.312 156.688H605.375ZM667.062 130.625H634.25L628.5 144C627.083 147.292 626.375 149.75 626.375 151.375C626.375 152.667 626.979 153.812 628.188 154.812C629.438 155.771 632.104 156.396 636.188 156.688V159H609.5V156.688C613.042 156.062 615.333 155.25 616.375 154.25C618.5 152.25 620.854 148.188 623.438 142.062L653.25 72.3125H655.438L684.938 142.812C687.312 148.479 689.458 152.167 691.375 153.875C693.333 155.542 696.042 156.479 699.5 156.688V159H666.062V156.688C669.438 156.521 671.708 155.958 672.875 155C674.083 154.042 674.688 152.875 674.688 151.5C674.688 149.667 673.854 146.771 672.188 142.812L667.062 130.625ZM665.312 126L650.938 91.75L636.188 126H665.312ZM760.812 74.25L761.75 94.125H759.375C758.917 90.625 758.292 88.125 757.5 86.625C756.208 84.2083 754.479 82.4375 752.312 81.3125C750.188 80.1458 747.375 79.5625 743.875 79.5625H731.938V144.312C731.938 149.521 732.5 152.771 733.625 154.062C735.208 155.812 737.646 156.688 740.938 156.688H743.875V159H707.938V156.688H710.938C714.521 156.688 717.062 155.604 718.562 153.438C719.479 152.104 719.938 149.062 719.938 144.312V79.5625H709.75C705.792 79.5625 702.979 79.8542 701.312 80.4375C699.146 81.2292 697.292 82.75 695.75 85C694.208 87.25 693.292 90.2917 693 94.125H690.625L691.625 74.25H760.812ZM826.062 76.5625V74.25H856.062V76.5625H852.875C849.542 76.5625 846.979 77.9583 845.188 80.75C844.312 82.0417 843.875 85.0417 843.875 89.75V124.125C843.875 132.625 843.021 139.229 841.312 143.938C839.646 148.604 836.333 152.625 831.375 156C826.458 159.333 819.75 161 811.25 161C802 161 794.979 159.396 790.188 156.188C785.396 152.979 782 148.667 780 143.25C778.667 139.542 778 132.583 778 122.375V89.25C778 84.0417 777.271 80.625 775.812 79C774.396 77.375 772.083 76.5625 768.875 76.5625H765.688V74.25H802.312V76.5625H799.062C795.562 76.5625 793.062 77.6667 791.562 79.875C790.521 81.375 790 84.5 790 89.25V126.188C790 129.479 790.292 133.25 790.875 137.5C791.5 141.75 792.604 145.062 794.188 147.438C795.771 149.812 798.042 151.771 801 153.312C804 154.854 807.667 155.625 812 155.625C817.542 155.625 822.5 154.417 826.875 152C831.25 149.583 834.229 146.5 835.812 142.75C837.438 138.958 838.25 132.562 838.25 123.562V89.25C838.25 83.9583 837.667 80.6458 836.5 79.3125C834.875 77.4792 832.458 76.5625 829.25 76.5625H826.062ZM944 159H921.375L892.688 119.375C890.562 119.458 888.833 119.5 887.5 119.5C886.958 119.5 886.375 119.5 885.75 119.5C885.125 119.458 884.479 119.417 883.812 119.375V144C883.812 149.333 884.396 152.646 885.562 153.938C887.146 155.771 889.521 156.688 892.688 156.688H896V159H859.688V156.688H862.875C866.458 156.688 869.021 155.521 870.562 153.188C871.438 151.896 871.875 148.833 871.875 144V89.25C871.875 83.9167 871.292 80.6042 870.125 79.3125C868.5 77.4792 866.083 76.5625 862.875 76.5625H859.688V74.25H890.562C899.562 74.25 906.188 74.9167 910.438 76.25C914.729 77.5417 918.354 79.9583 921.312 83.5C924.312 87 925.812 91.1875 925.812 96.0625C925.812 101.271 924.104 105.792 920.688 109.625C917.312 113.458 912.062 116.167 904.938 117.75L922.438 142.062C926.438 147.646 929.875 151.354 932.75 153.188C935.625 155.021 939.375 156.188 944 156.688V159ZM883.812 115.438C884.604 115.438 885.292 115.458 885.875 115.5C886.458 115.5 886.938 115.5 887.312 115.5C895.396 115.5 901.479 113.75 905.562 110.25C909.688 106.75 911.75 102.292 911.75 96.875C911.75 91.5833 910.083 87.2917 906.75 84C903.458 80.6667 899.083 79 893.625 79C891.208 79 887.938 79.3958 883.812 80.1875V115.438ZM969.625 78.875V112.375H988.25C993.083 112.375 996.312 111.646 997.938 110.188C1000.1 108.271 1001.31 104.896 1001.56 100.062H1003.88V129.562H1001.56C1000.98 125.438 1000.4 122.792 999.812 121.625C999.062 120.167 997.833 119.021 996.125 118.188C994.417 117.354 991.792 116.938 988.25 116.938H969.625V144.875C969.625 148.625 969.792 150.917 970.125 151.75C970.458 152.542 971.042 153.188 971.875 153.688C972.708 154.146 974.292 154.375 976.625 154.375H991C995.792 154.375 999.271 154.042 1001.44 153.375C1003.6 152.708 1005.69 151.396 1007.69 149.438C1010.27 146.854 1012.92 142.958 1015.62 137.75H1018.12L1010.81 159H945.5V156.688H948.5C950.5 156.688 952.396 156.208 954.188 155.25C955.521 154.583 956.417 153.583 956.875 152.25C957.375 150.917 957.625 148.188 957.625 144.062V89C957.625 83.625 957.083 80.3125 956 79.0625C954.5 77.3958 952 76.5625 948.5 76.5625H945.5V74.25H1010.81L1011.75 92.8125H1009.31C1008.44 88.3542 1007.46 85.2917 1006.38 83.625C1005.33 81.9583 1003.77 80.6875 1001.69 79.8125C1000.02 79.1875 997.083 78.875 992.875 78.875H969.625ZM1079.81 72.3125V101.625H1077.5C1076.75 96 1075.4 91.5208 1073.44 88.1875C1071.52 84.8542 1068.77 82.2083 1065.19 80.25C1061.6 78.2917 1057.9 77.3125 1054.06 77.3125C1049.73 77.3125 1046.15 78.6458 1043.31 81.3125C1040.48 83.9375 1039.06 86.9375 1039.06 90.3125C1039.06 92.8958 1039.96 95.25 1041.75 97.375C1044.33 100.5 1050.48 104.667 1060.19 109.875C1068.1 114.125 1073.5 117.396 1076.38 119.688C1079.29 121.938 1081.52 124.604 1083.06 127.688C1084.65 130.771 1085.44 134 1085.44 137.375C1085.44 143.792 1082.94 149.333 1077.94 154C1072.98 158.625 1066.58 160.938 1058.75 160.938C1056.29 160.938 1053.98 160.75 1051.81 160.375C1050.52 160.167 1047.83 159.417 1043.75 158.125C1039.71 156.792 1037.15 156.125 1036.06 156.125C1035.02 156.125 1034.19 156.438 1033.56 157.062C1032.98 157.688 1032.54 158.979 1032.25 160.938H1029.94V131.875H1032.25C1033.33 137.958 1034.79 142.521 1036.62 145.562C1038.46 148.562 1041.25 151.062 1045 153.062C1048.79 155.062 1052.94 156.062 1057.44 156.062C1062.65 156.062 1066.75 154.688 1069.75 151.938C1072.79 149.188 1074.31 145.938 1074.31 142.188C1074.31 140.104 1073.73 138 1072.56 135.875C1071.44 133.75 1069.67 131.771 1067.25 129.938C1065.62 128.688 1061.19 126.042 1053.94 122C1046.69 117.917 1041.52 114.667 1038.44 112.25C1035.4 109.833 1033.08 107.167 1031.5 104.25C1029.92 101.333 1029.12 98.125 1029.12 94.625C1029.12 88.5417 1031.46 83.3125 1036.12 78.9375C1040.79 74.5208 1046.73 72.3125 1053.94 72.3125C1058.44 72.3125 1063.21 73.4167 1068.25 75.625C1070.58 76.6667 1072.23 77.1875 1073.19 77.1875C1074.27 77.1875 1075.15 76.875 1075.81 76.25C1076.52 75.5833 1077.08 74.2708 1077.5 72.3125H1079.81Z" fill="black"/>
<path d="M488.578 253.141H498.422V247.078C498.422 245.995 498.354 245.281 498.219 244.938C498.115 244.677 497.896 244.453 497.562 244.266C497.115 244.016 496.641 243.891 496.141 243.891H495.391V243.312H504.453V243.891H503.703C503.203 243.891 502.729 244.01 502.281 244.25C501.948 244.417 501.719 244.672 501.594 245.016C501.479 245.349 501.422 246.036 501.422 247.078V260.75C501.422 261.823 501.49 262.531 501.625 262.875C501.729 263.135 501.943 263.359 502.266 263.547C502.724 263.797 503.203 263.922 503.703 263.922H504.453V264.5H495.391V263.922H496.141C497.005 263.922 497.635 263.667 498.031 263.156C498.292 262.823 498.422 262.021 498.422 260.75V254.297H488.578V260.75C488.578 261.823 488.646 262.531 488.781 262.875C488.885 263.135 489.104 263.359 489.438 263.547C489.885 263.797 490.359 263.922 490.859 263.922H491.625V264.5H482.547V263.922H483.297C484.172 263.922 484.807 263.667 485.203 263.156C485.453 262.823 485.578 262.021 485.578 260.75V247.078C485.578 245.995 485.51 245.281 485.375 244.938C485.271 244.677 485.057 244.453 484.734 244.266C484.276 244.016 483.797 243.891 483.297 243.891H482.547V243.312H491.625V243.891H490.859C490.359 243.891 489.885 244.01 489.438 244.25C489.115 244.417 488.891 244.672 488.766 245.016C488.641 245.349 488.578 246.036 488.578 247.078V253.141ZM525.984 257.406H517.781L516.344 260.75C515.99 261.573 515.812 262.188 515.812 262.594C515.812 262.917 515.964 263.203 516.266 263.453C516.578 263.693 517.245 263.849 518.266 263.922V264.5H511.594V263.922C512.479 263.766 513.052 263.562 513.312 263.312C513.844 262.812 514.432 261.797 515.078 260.266L522.531 242.828H523.078L530.453 260.453C531.047 261.87 531.583 262.792 532.062 263.219C532.552 263.635 533.229 263.87 534.094 263.922V264.5H525.734V263.922C526.578 263.88 527.146 263.74 527.438 263.5C527.74 263.26 527.891 262.969 527.891 262.625C527.891 262.167 527.682 261.443 527.266 260.453L525.984 257.406ZM525.547 256.25L521.953 247.688L518.266 256.25H525.547ZM540.266 243.312H546.016L558.969 259.203V246.984C558.969 245.682 558.823 244.87 558.531 244.547C558.146 244.109 557.536 243.891 556.703 243.891H555.969V243.312H563.344V243.891H562.594C561.698 243.891 561.062 244.161 560.688 244.703C560.458 245.036 560.344 245.797 560.344 246.984V264.844H559.781L545.812 247.781V260.828C545.812 262.13 545.953 262.943 546.234 263.266C546.63 263.703 547.24 263.922 548.062 263.922H548.812V264.5H541.438V263.922H542.172C543.078 263.922 543.719 263.651 544.094 263.109C544.323 262.776 544.438 262.016 544.438 260.828V246.094C543.823 245.375 543.354 244.901 543.031 244.672C542.719 244.443 542.255 244.229 541.641 244.031C541.339 243.938 540.88 243.891 540.266 243.891V243.312ZM572.359 264.5V263.922H573.156C574.052 263.922 574.688 263.635 575.062 263.062C575.292 262.719 575.406 261.948 575.406 260.75V247.062C575.406 245.74 575.26 244.911 574.969 244.578C574.562 244.12 573.958 243.891 573.156 243.891H572.359V243.312H580.984C584.151 243.312 586.557 243.672 588.203 244.391C589.859 245.109 591.188 246.307 592.188 247.984C593.198 249.661 593.703 251.599 593.703 253.797C593.703 256.745 592.807 259.208 591.016 261.188C589.005 263.396 585.943 264.5 581.828 264.5H572.359ZM578.406 262.969C579.729 263.26 580.839 263.406 581.734 263.406C584.151 263.406 586.156 262.557 587.75 260.859C589.344 259.161 590.141 256.859 590.141 253.953C590.141 251.026 589.344 248.719 587.75 247.031C586.156 245.344 584.109 244.5 581.609 244.5C580.672 244.5 579.604 244.651 578.406 244.953V262.969ZM616.031 264.5L607.844 246.672V260.828C607.844 262.13 607.984 262.943 608.266 263.266C608.651 263.703 609.26 263.922 610.094 263.922H610.844V264.5H603.469V263.922H604.219C605.115 263.922 605.75 263.651 606.125 263.109C606.354 262.776 606.469 262.016 606.469 260.828V246.984C606.469 246.047 606.365 245.37 606.156 244.953C606.01 244.651 605.74 244.401 605.344 244.203C604.958 243.995 604.333 243.891 603.469 243.891V243.312H609.469L617.156 259.891L624.719 243.312H630.719V243.891H629.984C629.078 243.891 628.438 244.161 628.062 244.703C627.833 245.036 627.719 245.797 627.719 246.984V260.828C627.719 262.13 627.865 262.943 628.156 263.266C628.542 263.703 629.151 263.922 629.984 263.922H630.719V264.5H621.719V263.922H622.469C623.375 263.922 624.01 263.651 624.375 263.109C624.604 262.776 624.719 262.016 624.719 260.828V246.672L616.547 264.5H616.031ZM652.266 257.406H644.062L642.625 260.75C642.271 261.573 642.094 262.188 642.094 262.594C642.094 262.917 642.245 263.203 642.547 263.453C642.859 263.693 643.526 263.849 644.547 263.922V264.5H637.875V263.922C638.76 263.766 639.333 263.562 639.594 263.312C640.125 262.812 640.714 261.797 641.359 260.266L648.812 242.828H649.359L656.734 260.453C657.328 261.87 657.865 262.792 658.344 263.219C658.833 263.635 659.51 263.87 660.375 263.922V264.5H652.016V263.922C652.859 263.88 653.427 263.74 653.719 263.5C654.021 263.26 654.172 262.969 654.172 262.625C654.172 262.167 653.964 261.443 653.547 260.453L652.266 257.406ZM651.828 256.25L648.234 247.688L644.547 256.25H651.828ZM667.516 264.5V263.922H668.312C669.208 263.922 669.844 263.635 670.219 263.062C670.448 262.719 670.562 261.948 670.562 260.75V247.062C670.562 245.74 670.417 244.911 670.125 244.578C669.719 244.12 669.115 243.891 668.312 243.891H667.516V243.312H676.141C679.307 243.312 681.714 243.672 683.359 244.391C685.016 245.109 686.344 246.307 687.344 247.984C688.354 249.661 688.859 251.599 688.859 253.797C688.859 256.745 687.964 259.208 686.172 261.188C684.161 263.396 681.099 264.5 676.984 264.5H667.516ZM673.562 262.969C674.885 263.26 675.995 263.406 676.891 263.406C679.307 263.406 681.312 262.557 682.906 260.859C684.5 259.161 685.297 256.859 685.297 253.953C685.297 251.026 684.5 248.719 682.906 247.031C681.312 245.344 679.266 244.5 676.766 244.5C675.828 244.5 674.76 244.651 673.562 244.953V262.969ZM704.781 244.469V252.844H709.438C710.646 252.844 711.453 252.661 711.859 252.297C712.401 251.818 712.703 250.974 712.766 249.766H713.344V257.141H712.766C712.62 256.109 712.474 255.448 712.328 255.156C712.141 254.792 711.833 254.505 711.406 254.297C710.979 254.089 710.323 253.984 709.438 253.984H704.781V260.969C704.781 261.906 704.823 262.479 704.906 262.688C704.99 262.885 705.135 263.047 705.344 263.172C705.552 263.286 705.948 263.344 706.531 263.344H710.125C711.323 263.344 712.193 263.26 712.734 263.094C713.276 262.927 713.797 262.599 714.297 262.109C714.943 261.464 715.604 260.49 716.281 259.188H716.906L715.078 264.5H698.75V263.922H699.5C700 263.922 700.474 263.802 700.922 263.562C701.255 263.396 701.479 263.146 701.594 262.812C701.719 262.479 701.781 261.797 701.781 260.766V247C701.781 245.656 701.646 244.828 701.375 244.516C701 244.099 700.375 243.891 699.5 243.891H698.75V243.312H715.078L715.312 247.953H714.703C714.484 246.839 714.24 246.073 713.969 245.656C713.708 245.24 713.318 244.922 712.797 244.703C712.38 244.547 711.646 244.469 710.594 244.469H704.781Z" fill="black"/>
</svg>
